<svg width="20" height="24" viewBox="0 0 20 24" fill="none" xmlns="http://www.w3.org/2000/svg">
<path d="M19.0294 6.55155L13.8493 0.718218C13.7403 0.59736 13.6071 0.500669 13.4584 0.434362C13.3097 0.368056 13.1488 0.333603 12.986 0.333218H3.65268C3.26506 0.328594 2.88032 0.400371 2.52043 0.54445C2.16055 0.688529 1.83257 0.902088 1.55523 1.17293C1.27788 1.44377 1.05661 1.7666 0.904037 2.12296C0.751465 2.47933 0.670585 2.86226 0.666016 3.24988V20.7499C0.670585 21.1375 0.751465 21.5204 0.904037 21.8768C1.05661 22.2332 1.27788 22.556 1.55523 22.8268C1.83257 23.0977 2.16055 23.3112 2.52043 23.4553C2.88032 23.5994 3.26506 23.6712 3.65268 23.6665H16.346C16.7336 23.6712 17.1184 23.5994 17.4783 23.4553C17.8382 23.3112 18.1661 23.0977 18.4435 22.8268C18.7208 22.556 18.9421 22.2332 19.0947 21.8768C19.2472 21.5204 19.3281 21.1375 19.3327 20.7499V7.33322C19.3319 7.04408 19.2238 6.76552 19.0294 6.55155ZM12.3327 2.66655L16.696 7.33322H13.196C13.0738 7.32584 12.9544 7.2942 12.8445 7.24015C12.7347 7.1861 12.6368 7.11072 12.5564 7.01841C12.476 6.9261 12.4149 6.8187 12.3765 6.70249C12.338 6.58627 12.3232 6.46358 12.3327 6.34155V2.66655Z" fill="white"/>
</svg>
