<svg width="24" height="24" viewBox="0 0 24 24" fill="none" xmlns="http://www.w3.org/2000/svg">
<rect width="24" height="24" fill="white"/>
<circle cx="11.9999" cy="11.9996" r="10" transform="rotate(60 11.9999 11.9996)" stroke="#F49C45" stroke-width="2"/>
<circle cx="12" cy="12" r="3" fill="#F49C45"/>
<path d="M12 7C13.9758 7 15.6731 7.89125 17.0341 9.02798C18.3499 10.127 19.2871 11.4038 19.7686 12.141C19.1549 12.8293 17.9903 14.0446 16.5733 15.0936C15.0857 16.1949 13.4696 17 12 17C10.5304 17 8.91431 16.1949 7.42665 15.0936C6.00973 14.0446 4.84506 12.8293 4.23136 12.141C4.7129 11.4038 5.65007 10.127 6.9659 9.02798C8.32687 7.89125 10.0242 7 12 7Z" stroke="#F49C45" stroke-width="2"/>
</svg>
