<svg width="48" height="48" viewBox="0 0 48 48" fill="none" xmlns="http://www.w3.org/2000/svg">
<path fill-rule="evenodd" clip-rule="evenodd" d="M29.5 23C27.3787 23 26.318 23 25.659 22.341C25 21.682 25 20.6213 25 18.5C25 16.3787 25 15.318 25.659 14.659C26.318 14 27.3787 14 29.5 14C31.6213 14 32.682 14 33.341 14.659C34 15.318 34 16.3787 34 18.5C34 20.6213 34 21.682 33.341 22.341C32.682 23 31.6213 23 29.5 23ZM30.25 16.5C30.25 16.0858 29.9142 15.75 29.5 15.75C29.0858 15.75 28.75 16.0858 28.75 16.5V17.75H27.5C27.0858 17.75 26.75 18.0858 26.75 18.5C26.75 18.9142 27.0858 19.25 27.5 19.25H28.75V20.5C28.75 20.9142 29.0858 21.25 29.5 21.25C29.9142 21.25 30.25 20.9142 30.25 20.5V19.25H31.5C31.9142 19.25 32.25 18.9142 32.25 18.5C32.25 18.0858 31.9142 17.75 31.5 17.75H30.25V16.5Z" fill="#828282"/>
<path opacity="0.5" d="M33.9998 24.6978C33.9983 26.1674 33.9871 27.4165 33.9036 28.4414C33.8067 29.6308 33.6081 30.6246 33.1636 31.45C32.9676 31.814 32.7267 32.1401 32.4334 32.4334C31.601 33.2657 30.5405 33.6428 29.1966 33.8235C27.8835 34 26.2007 34 24.0534 34H23.9466C21.7993 34 20.1165 34 18.8034 33.8235C17.4595 33.6428 16.399 33.2657 15.5666 32.4334C14.8287 31.6954 14.4476 30.777 14.245 29.6376C14.0459 28.5184 14.0095 27.1259 14.0019 25.3967C14 24.9569 14 24.4917 14 24.0009V23.9466C14 21.7993 14 20.1165 14.1765 18.8034C14.3572 17.4595 14.7343 16.399 15.5666 15.5666C16.399 14.7343 17.4595 14.3572 18.8034 14.1765C19.9711 14.0195 21.4735 14.0021 23.302 14.0002C23.6873 13.9998 24 14.3124 24 14.6977C24 15.083 23.6872 15.3952 23.3019 15.3956C21.4475 15.3976 20.0675 15.4145 18.9894 15.5594C17.8002 15.7193 17.0832 16.0234 16.5533 16.5533C16.0234 17.0832 15.7193 17.8002 15.5594 18.9894C15.3968 20.1987 15.3953 21.7877 15.3953 24C15.3953 24.2702 15.3953 24.5314 15.3957 24.7844L16.327 23.9696C17.1747 23.2278 18.4522 23.2704 19.2487 24.0668L23.2392 28.0573C23.8785 28.6966 24.8848 28.7837 25.6245 28.2639L25.9019 28.0689C26.9663 27.3209 28.4064 27.4076 29.3734 28.2779L32.0064 30.6476C32.2714 30.091 32.4288 29.3597 32.5128 28.3281C32.592 27.3561 32.6029 26.1755 32.6044 24.6979C32.6048 24.3126 32.917 24 33.3023 24C33.6876 24 34.0002 24.3125 33.9998 24.6978Z" fill="#828282"/>
<rect x="0.5" y="0.5" width="47" height="47" rx="3.5" stroke="#828282" stroke-dasharray="8 8"/>
</svg>
