<svg width="36" height="36" viewBox="0 0 36 36" fill="none" xmlns="http://www.w3.org/2000/svg">
<path d="M33.1167 0H2.87815C2.11524 0.00135843 1.38395 0.305504 0.84449 0.845816C0.305025 1.38613 0.0013563 2.11856 0 2.88267L0 33.1122C-1.20915e-06 33.8772 0.303068 34.6109 0.84268 35.1524C1.38229 35.6938 2.11435 35.9986 2.87815 36H33.1167C33.4954 36 33.8703 35.9253 34.2201 35.7802C34.5699 35.6351 34.8878 35.4223 35.1555 35.1542C35.4232 34.886 35.6356 34.5677 35.7805 34.2173C35.9254 33.8669 36 33.4914 36 33.1122V2.88267C35.9986 2.11767 35.6943 1.38446 35.1537 0.844003C34.6131 0.303544 33.8805 -1.21105e-06 33.1167 0V0ZM2.87815 2.05538H33.1167C33.3363 2.05538 33.5469 2.14237 33.7026 2.29737C33.8583 2.45238 33.9465 2.66279 33.9478 2.88267V21.7459L29.0124 16.1502C28.8066 15.9167 28.5563 15.7268 28.2761 15.5918C27.9959 15.4568 27.6915 15.3793 27.3809 15.364C27.0665 15.3446 26.7515 15.3888 26.4545 15.4938C26.1574 15.5989 25.8845 15.7627 25.652 15.9754L21.9889 19.372L15.2014 10.6366C14.9849 10.3582 14.7106 10.1303 14.3973 9.9688C14.0841 9.80729 13.7395 9.71604 13.3875 9.70137C13.0355 9.6867 12.6845 9.74897 12.359 9.88385C12.0335 10.0187 11.7411 10.223 11.5024 10.4824L2.05216 20.7439V2.88267C2.05216 2.66326 2.13918 2.45284 2.29409 2.29769C2.44899 2.14254 2.65909 2.05538 2.87815 2.05538ZM2.05216 33.1122V23.4159L2.23172 23.5804L13.0056 11.9058C13.0425 11.8653 13.0878 11.8334 13.1383 11.8121C13.1888 11.7908 13.2433 11.7807 13.298 11.7825C13.3528 11.7836 13.4066 11.7972 13.4555 11.8221C13.5044 11.847 13.547 11.8826 13.5802 11.9263L30.7311 33.9446H2.87815C2.65862 33.9433 2.44853 33.855 2.29377 33.699C2.13901 33.543 2.05215 33.3321 2.05216 33.1122ZM33.1167 33.9446H32.7986L33.1321 33.6826L23.251 21.0009L27.0628 17.4707C27.0906 17.4439 27.1237 17.4232 27.1599 17.41C27.1961 17.3967 27.2347 17.3911 27.2732 17.3937C27.3114 17.3955 27.3489 17.4051 27.3833 17.4219C27.4177 17.4387 27.4483 17.4623 27.4733 17.4913L33.9478 24.8547V33.1122C33.9465 33.3326 33.8585 33.5435 33.7029 33.6993C33.5473 33.8551 33.3367 33.9433 33.1167 33.9446Z" fill="#828282"/>
<path d="M21.2601 13.1497C22.1541 13.1497 23.0279 12.8842 23.7712 12.3867C24.5145 11.8893 25.0938 11.1823 25.4359 10.3551C25.778 9.52789 25.8675 8.61766 25.6931 7.73951C25.5187 6.86137 25.0883 6.05474 24.4562 5.42163C23.824 4.78852 23.0187 4.35736 22.1419 4.18269C21.2651 4.00802 20.3563 4.09766 19.5304 4.4403C18.7045 4.78294 17.9986 5.36317 17.502 6.10763C17.0053 6.85209 16.7402 7.72733 16.7402 8.62268C16.7416 9.82289 17.2182 10.9736 18.0656 11.8222C18.9129 12.6709 20.0618 13.1483 21.2601 13.1497ZM21.2601 6.15109C21.7482 6.15109 22.2253 6.29604 22.6311 6.56763C23.0369 6.83921 23.3532 7.22522 23.54 7.67684C23.7268 8.12847 23.7756 8.62542 23.6804 9.10487C23.5852 9.58431 23.3502 10.0247 23.0051 10.3704C22.6599 10.716 22.2202 10.9514 21.7415 11.0468C21.2629 11.1422 20.7667 11.0932 20.3158 10.9061C19.8648 10.7191 19.4794 10.4023 19.2083 9.99583C18.9371 9.58938 18.7924 9.11152 18.7924 8.62268C18.7965 7.96985 19.0582 7.34514 19.5206 6.88496C19.9829 6.42477 20.6083 6.16649 21.2601 6.1665V6.15109Z" fill="#828282"/>
</svg>
