<svg width="22" height="16" viewBox="0 0 22 16" fill="none" xmlns="http://www.w3.org/2000/svg">
<path d="M8.20224 15.8488C8.02288 15.8482 7.84554 15.8108 7.68127 15.7387C7.51699 15.6667 7.36927 15.5617 7.2473 15.4302L0.889744 8.66711C0.65209 8.41384 0.524779 8.07654 0.535819 7.72941C0.546858 7.38227 0.695344 7.05374 0.94861 6.81609C1.20188 6.57844 1.53918 6.45113 1.88631 6.46217C2.23344 6.4732 2.56197 6.62169 2.79963 6.87496L8.18916 12.6177L19.1906 0.582806C19.3023 0.44378 19.4411 0.329046 19.5988 0.24565C19.7564 0.162254 19.9293 0.111958 20.1071 0.0978509C20.2848 0.0837435 20.4636 0.106123 20.6324 0.163614C20.8011 0.221105 20.9564 0.312494 21.0886 0.432168C21.2208 0.551842 21.3271 0.697274 21.401 0.859533C21.4749 1.02179 21.5149 1.19745 21.5185 1.37572C21.522 1.55399 21.4891 1.73111 21.4217 1.89619C21.3544 2.06128 21.2539 2.21085 21.1267 2.33571L9.17027 15.4171C9.04945 15.551 8.90225 15.6585 8.73791 15.7328C8.57358 15.807 8.39566 15.8466 8.21533 15.8488H8.20224Z" fill="white"/>
</svg>
